<?xml version="1.0" encoding="UTF-8"?>
<!-- Generator: Adobe Illustrator 13.0.0, SVG Export Plug-In . SVG Version: 6.00 Build 14948)  -->
<!DOCTYPE svg PUBLIC "-//W3C//DTD SVG 1.0//EN" "http://www.w3.org/TR/2001/REC-SVG-20010904/DTD/svg10.dtd">
<svg version="1.0" id="Calque_1" xmlns="http://www.w3.org/2000/svg" xmlns:xlink="http://www.w3.org/1999/xlink" x="0px" y="0px" width="346.744px" height="346.745px" viewBox="0 0 346.744 346.745" enable-background="new 0 0 346.744 346.745" xml:space="preserve">
<g>
	<path fill-rule="evenodd" clip-rule="evenodd" fill="#E32219" d="M346.744,173.373c0,95.752-77.623,173.373-173.373,173.373   S0,269.125,0,173.373C0,77.623,77.622,0,173.372,0S346.744,77.623,346.744,173.373L346.744,173.373z"/>
	<path fill-rule="evenodd" clip-rule="evenodd" fill="#FFFFFF" d="M345.01,173.373c0,94.794-76.846,171.638-171.638,171.638   S1.733,268.167,1.733,173.373C1.733,78.581,78.58,1.734,173.372,1.734S345.01,78.581,345.01,173.373L345.01,173.373L345.01,173.373   z M36.619,112.969c-8.354,18.46-13.006,38.903-13.006,60.403c0,81.747,67.181,148.251,149.758,148.251   c82.579,0,149.76-66.504,149.76-148.251c0-21.5-4.654-41.945-13.007-60.403c-2.439,1-4.835,1.983-7.201,2.95   c7.981,17.548,12.428,36.997,12.428,57.453c0,77.456-63.692,140.471-141.98,140.471c-78.287,0-141.979-63.015-141.979-140.471   c0-20.456,4.446-39.905,12.427-57.451C41.454,114.952,39.057,113.969,36.619,112.969L36.619,112.969L36.619,112.969z    M338.689,173.373c0-23.588-5.065-46.023-14.162-66.306c-2.434,0.999-4.837,1.981-7.202,2.95   c8.726,19.373,13.584,40.812,13.584,63.355c0,86.035-70.67,156.031-157.538,156.031c-86.867,0-157.539-69.996-157.539-156.031   c0-22.544,4.86-43.983,13.585-63.354c-2.365-0.969-4.768-1.954-7.202-2.952C13.12,127.35,8.053,149.785,8.053,173.373   c0,90.324,74.162,163.811,165.318,163.811C264.529,337.183,338.689,263.696,338.689,173.373L338.689,173.373z"/>
	<path fill-rule="evenodd" clip-rule="evenodd" fill="#E32219" d="M307.237,69.684l-19.131-14.296l-0.931,1.245   c0,0,18.394,13.747,18.761,14.021c0.155,0.428,7.717,21.24,7.717,21.24l1.464-0.531L307.237,69.684L307.237,69.684z"/>
	<polygon fill-rule="evenodd" clip-rule="evenodd" fill="#E32219" points="291.412,64.371 290.337,65.208 305.929,85.175    307.004,84.337 291.412,64.371  "/>
	<path fill-rule="evenodd" clip-rule="evenodd" fill="#E32219" d="M281.1,62.543l5.529,7.105l-11.936,0.067l23.267,29.718   l5.625-8.005l3.115,4.001l0.921-0.717l-25.599-32.886L281.1,62.543L281.1,62.543L281.1,62.543z M300.587,87.577l-4.799,6.828   L280.2,74.548l9.967-0.358L300.587,87.577L300.587,87.577z"/>
	<path fill-rule="evenodd" clip-rule="evenodd" fill="#E32219" d="M248.218,32.477l-0.166-5.176l1.841-3.367l-4.096-2.239   l-2.635,4.818c-3.579,0.059-3.581,0.057-3.581,0.057l0.509,5.56l-5.942,10.862l5.128,0.352l5.822-10.64L248.218,32.477   L248.218,32.477z"/>
	<path fill-rule="evenodd" clip-rule="evenodd" fill="#E32219" d="M275.043,40.117l-9.281-4.847l2.482-1.883l-4.975-2.084   l-2.05,1.554l-6.636-3.525l-0.363,0.686l6.317,3.357l-5.462,4.14l-7.021-0.371c-0.027,3.172-0.041,4.841-0.046,5.732l-5.677,4.304   l4.778,2.233l17.971-13.625l6.109,3.245l-9.529,16.956l-4.004-2.447l-0.814,1.329l7.376,4.506l2.616-4.654l6.229,0.26   l-0.143-11.087L275.043,40.117L275.043,40.117z"/>
	<polygon fill-rule="evenodd" clip-rule="evenodd" fill="#E32219" points="194.472,23.343 191.336,24.244 191.966,18.453    194.854,18.747 194.975,17.586 192.092,17.292 192.971,9.212 196.854,9.621 197.017,8.074 183.673,6.669 183.511,8.216    189.104,8.805 188.224,16.896 183.962,16.46 183.842,17.621 188.096,18.055 187.296,25.405 183.176,26.5 182.259,28.833    194.996,25.177 194.472,23.343  "/>
	<polygon fill-rule="evenodd" clip-rule="evenodd" fill="#E32219" points="216.89,26.437 216.936,36.76 221.72,38.175    221.552,27.332 216.89,26.437  "/>
	<polygon fill-rule="evenodd" clip-rule="evenodd" fill="#E32219" points="199.938,22.229 192.874,29.951 199.097,30.001    206.177,22.449 199.938,22.229  "/>
	<polygon fill-rule="evenodd" clip-rule="evenodd" fill="#E32219" points="217.703,22.114 222.23,23.319 226.414,19.462    221.234,18.384 217.703,22.114  "/>
	<path fill-rule="evenodd" clip-rule="evenodd" fill="#E32219" d="M223.876,12.439c0,0-0.007,0.006-3.27,2.772l-4.929-0.99   l0.654-3.509l-4.587-0.856l-0.643,3.447l-11.351-2.281l-0.229,1.143l0.612,0.123l-0.031,5.533l4.533,0.856l0.142-5.457l6.109,1.228   l-2.599,13.927l-7.275,5.013l6.26,0.418l4.587,0.857l3.604-19.294l11.63,2.336l0.231-1.144l-1.26-0.254l2.598-2.664L223.876,12.439   L223.876,12.439z"/>
	<path fill-rule="evenodd" clip-rule="evenodd" fill="#E32219" d="M152.168,25.439l15.242-1.434l-0.184-1.46l-15.228,1.348   l-0.729-6.657c5.685-0.547,11.678-0.816,17.583-0.578l0.232-7.841c-17.903-0.935-44.088,5.019-44.088,5.019   c-0.468,0.141,0.354,7.772,0.354,7.772c1.277-0.306,5.572-1.241,5.572-1.241c4.031-0.839,8.876-1.721,14.165-2.423l1.144,10.466   l-10.108-5l-4.887,0.396l-0.587,12.346l5.551-0.927c0,0,0.168-3.994,0.378-7.249c3.275,1.618,10.042,5.388,10.042,5.388   l7.012-1.207c0,0,13.856-1.896,17.584-1.866l0.014-1.554c-3.217-0.027-13.087,1.147-18.477,2.046L152.168,25.439L152.168,25.439   L152.168,25.439z M130.795,19.598l-0.936-5.918c7.873-1.938,20.387-3.667,32.948-3.814l-0.155,5.941   C150.753,15.98,139.068,17.877,130.795,19.598L130.795,19.598z"/>
	<path fill-rule="evenodd" clip-rule="evenodd" fill="#E32219" d="M67.768,43.127l14.815,19.764   c2.156-2.12,30.501-19.783,36.94-22.064l-10.522-21.481C97.297,23.529,72.858,39.083,67.768,43.127L67.768,43.127L67.768,43.127z    M86.902,57.87L74.599,40.265c6.456-4.616,21.31-13.441,28.726-16.493l9.771,18.169C102.349,47.882,93.748,53.258,86.902,57.87   L86.902,57.87z"/>
	<path fill-rule="evenodd" clip-rule="evenodd" fill="#E32219" d="M57.737,56.66c-2.517,2.562-7.463,8.382-12.568,14.659   l-3.131-2.466l-3.852,4.889l3.08,2.426c-5.061,6.357-9.703,12.457-11.628,15.466l13.928,9.254   c0.953-1.589,5.53-7.688,10.803-14.397l5.269,4.153l3.852-4.889l-5.251-4.138c4.514-5.625,9.025-11.024,11.858-13.965L57.737,56.66   L57.737,56.66L57.737,56.66z M46.139,95.463c0,0-0.582-0.394-11.4-9.235c0.929-1.327,3.918-5.178,7.307-9.447l11.331,8.927   C50.204,89.764,47.363,93.542,46.139,95.463L46.139,95.463L46.139,95.463z M57.244,80.833l-11.311-8.912   c3.31-4.105,6.417-7.874,7.867-9.461l11.404,8.847C63.634,73.015,60.53,76.743,57.244,80.833L57.244,80.833z"/>
	<path fill-rule="evenodd" clip-rule="evenodd" fill="#E32219" d="M93.517,33.488c3.906-2.237,7.466-4.11,9.41-4.902l-0.441-1.08   c-4.6,1.874-18.121,9.711-24.17,14.269l0.703,0.933c2.419-1.824,6.043-4.176,9.805-6.455l2.605,4.795l-8.228,4.814l0.59,1.008   l8.195-4.795l2.875,5.292l-9.573,5.512l0.583,1.011l23.646-13.617l-0.583-1.011l-1.853,1.069l0.016-1.941   c0,0-0.016-0.007-5.185-2.124l2.205-1.291l-0.589-1.006l-7.395,4.327L93.517,33.488L93.517,33.488L93.517,33.488z M97.955,38.582   l5.536,3.816l-3.91,2.25l-2.894-5.325L97.955,38.582L97.955,38.582z"/>
	<path fill-rule="evenodd" clip-rule="evenodd" fill="#1FA22E" d="M305.239,173.373c0,71.996-59.04,130.357-131.867,130.357   S41.506,245.368,41.506,173.373c0-71.994,59.038-130.355,131.865-130.355S305.239,101.379,305.239,173.373L305.239,173.373z"/>
	<path fill-rule="evenodd" clip-rule="evenodd" fill="#FFFFFF" d="M250.631,218.065c0,42.215-34.221,76.438-76.436,76.438   c-42.215,0-76.437-34.223-76.437-76.438c0-42.214,34.222-76.437,76.437-76.437C216.41,141.628,250.631,175.851,250.631,218.065   L250.631,218.065z"/>
	<path fill-rule="evenodd" clip-rule="evenodd" d="M154.617,149.993c14.778-4.667,26.513-4.26,41.622,0.776   c3.111,6.226,3.111,6.226,3.111,6.226l0,0c-7.39,0.778-20.617,4.667-24.117,5.833c-5.056-1.944-21.005-6.612-23.729-6.224   L154.617,149.993L154.617,149.993z"/>
	<path fill-rule="evenodd" clip-rule="evenodd" d="M235.997,179.973c8.753,12.792,11.765,24.141,11.327,40.06   c-5.053,4.782-5.053,4.782-5.053,4.782l0,0c-2.887-6.849-10.447-18.376-12.579-21.389c0.396-5.401,0.237-22.019-0.925-24.514   L235.997,179.973L235.997,179.973z"/>
	<path fill-rule="evenodd" clip-rule="evenodd" d="M231.769,264.593c-9.296,12.401-19.072,18.902-34.286,23.607   c-6.154-3.249-6.154-3.249-6.154-3.249l0,0c5.552-4.935,14.04-15.798,16.206-18.787c5.245-1.363,20.927-6.858,22.914-8.761   L231.769,264.593L231.769,264.593z"/>
	<path fill-rule="evenodd" clip-rule="evenodd" d="M149.817,288.179c-14.729-4.82-24.029-11.99-33.371-24.886   c1.098-6.872,1.098-6.872,1.098-6.872l0,0c6.46,3.675,19.474,8.22,22.999,9.313c2.976,4.526,13.217,17.615,15.656,18.885   L149.817,288.179L149.817,288.179z"/>
	<path fill-rule="evenodd" clip-rule="evenodd" d="M102.25,217.818c0.163-15.499,4.201-26.525,13.684-39.316   c6.884-1.023,6.884-1.023,6.884-1.023l0,0c-1.559,7.268-1.976,21.047-1.955,24.737c-3.422,4.203-12.82,17.906-13.296,20.615   L102.25,217.818L102.25,217.818z"/>
	<path fill-rule="evenodd" clip-rule="evenodd" d="M174.844,185.779L174.844,185.779L174.844,185.779L174.844,185.779   L174.844,185.779c-7.781,2.723-29.952,19.839-32.675,23.34c0,7.39,8.558,33.063,12.059,37.731   c6.612,1.556,19.914,1.944,20.26,1.944c0.337,0.004,13.617-0.228,20.25-1.706c3.555-4.627,12.415-30.196,12.502-37.587   C204.558,205.97,182.591,188.596,174.844,185.779L174.844,185.779z"/>
	<path fill-rule="evenodd" clip-rule="evenodd" fill="#FFFFFF" d="M162.397,233.237c-1.357,0-2.144,0-3.502,0   c0-3.184,0-23.659,0-26.842c1.25,0,1.863,0,3.112,0c0,2.189,0,5.835,0,5.835h3.891v-9.725h-10.892v34.62h11.28v-9.724h-3.89   C162.397,227.401,162.397,231.047,162.397,233.237L162.397,233.237z"/>
	<path fill-rule="evenodd" clip-rule="evenodd" fill="#FFFFFF" d="M172.121,206.417c2.322,0,6.612,0,6.612,0v-3.889h-10.501v34.792   h3.89c0,0,0-7.898,0-15.755h5.641v-3.889h-5.641C172.121,212.36,172.121,207.706,172.121,206.417L172.121,206.417z"/>
	<path fill-rule="evenodd" clip-rule="evenodd" fill="#FFFFFF" d="M189.413,202.632l-4.65-0.126l-6.793,34.425h3.982   c0.354-1.62,0.95-4.355,1.66-7.594h5.556c0.44,3.233,0.811,5.963,1.032,7.594h4.189L189.413,202.632L189.413,202.632   L189.413,202.632z M184.463,225.445c1.379-6.308,2.09-11.325,2.44-12.923c0.505,3.721,1.212,9.051,1.736,12.923H184.463   L184.463,225.445z"/>
	<path fill-rule="evenodd" clip-rule="evenodd" fill="#F9E565" d="M275.072,132.491l-3.27-20.23H81.254l-3.268,20.23   c0,0,0.012,0,48.882,0v-5.449c0-2.792,2.265-5.057,5.057-5.057c2.793,0,5.057,2.266,5.057,5.057v5.449c3.464,0,7.136,0,11.021,0   v-7.782c0-3.007,2.439-5.447,5.446-5.447c3.008,0,5.445,2.44,5.445,5.447v7.782c3.753,0,7.69,0,11.8,0v-9.338   c0-3.224,2.613-5.835,5.833-5.835c3.222,0,5.833,2.612,5.833,5.835v9.338c4.111,0,8.047,0,11.801,0v-7.782   c0-3.007,2.438-5.447,5.445-5.447c3.007,0,5.445,2.44,5.445,5.447v7.782c3.885,0,7.556,0,11.021,0v-5.449   c0-2.792,2.266-5.057,5.057-5.057c2.793,0,5.057,2.266,5.057,5.057v5.449C275.06,132.491,275.072,132.491,275.072,132.491   L275.072,132.491z"/>
	<path fill-rule="evenodd" clip-rule="evenodd" fill="#F9E565" d="M271.259,108.889l-0.336-2.074c-77.998,0-110.791,0-188.788,0   l-0.335,2.074H271.259L271.259,108.889z"/>
	<path fill-rule="evenodd" clip-rule="evenodd" fill="#F9E565" d="M119.219,96.182l-1.296,1.296v7.78h117.212v-7.78l-1.296-1.296   c3.631-1.556,5.708-3.889,8.298-6.742c-1.554-1.038-1.554-1.038-1.554-1.038s-4.671,4.927-9.854,4.927   c-33.584,0-74.813,0-108.396,0c-5.184,0-9.854-4.927-9.854-4.927s0,0-1.556,1.038C113.514,92.293,115.589,94.626,119.219,96.182   L119.219,96.182L119.219,96.182z M217.242,96.96h15.299v6.744h-15.299V96.96L217.242,96.96L217.242,96.96z M194.42,96.7h15.82   v7.004h-15.82V96.7L194.42,96.7L194.42,96.7z M163.822,96.96h25.413v7.001h-25.413V96.96L163.822,96.96L163.822,96.96z    M142.817,96.7h15.819v7.004h-15.819V96.7L142.817,96.7L142.817,96.7z M120.516,96.96h15.3v6.744h-15.3V96.96L120.516,96.96z"/>
	<path fill-rule="evenodd" clip-rule="evenodd" fill="#F9E565" d="M237.729,84.514l-1.298,1.296l-2.075-1.816l-1.036,1.039   c-4.149,0.26-7.001-3.113-2.334-7.002l2.57-1.711l-1.014-0.624c-4.149,2.075-5.703,5.965-6.223,7.78   c-0.519,1.816-1.557-1.296-1.557-1.296c-27.666,0-68.8,0-96.467,0c0,0-1.036,3.113-1.556,1.296   c-0.519-1.814-2.074-5.705-6.223-7.78l-1.012,0.624l2.567,1.711c4.668,3.889,1.815,7.262-2.333,7.002l-1.037-1.039l-2.075,1.816   l-1.296-1.296l-1.291,3.225c2.669,1.058,7.591,1.755,10.885,1.962h103.209c3.294-0.207,8.216-0.904,10.887-1.962L237.729,84.514   L237.729,84.514z"/>
	<path fill-rule="evenodd" clip-rule="evenodd" fill="#F9E565" d="M123.887,74.139c0,0,5.446,3.891,9.595,3.631h86.095   c4.147,0.26,9.594-3.631,9.594-3.631c1.078-0.646,4.312,0.145,5.663,1.327l0.82-0.549l-1.038-3.11   c-0.778-2.335-3.111-0.26-3.111-0.26c-1.816,2.075-4.151,2.075-5.447-1.556l-1.814-9.854l0.778-2.073   c-1.816-2.594-4.669-3.633-5.963-4.151c-1.298-0.518,1.294,0.26,0.518,4.669h-86.095c-0.778-4.409,1.814-5.187,0.518-4.669   c-1.296,0.518-4.149,1.557-5.964,4.151l0.778,2.073l-1.815,9.854c-1.296,3.631-3.63,3.631-5.445,1.556c0,0-2.334-2.075-3.112,0.26   l-1.037,3.11l0.82,0.549C119.577,74.284,122.808,73.493,123.887,74.139L123.887,74.139L123.887,74.139z M128.815,69.407   c0.716-0.956,1.335-1.782,1.104-4.788c-0.232-3.015,0.738-3.692,2.731-3.94l1.35-0.218l85.293,0.028l1.115,0.189   c1.992,0.249,2.962,0.925,2.73,3.94c-0.231,3.006,0.388,3.832,1.105,4.788c0.321,0.43,0.235,1.04-0.193,1.361   c-0.432,0.321-1.042,0.235-1.363-0.195c-0.727-0.969-1.54-2.054-1.54-4.811c0-0.394,0.104-2.004,0.104-2.243   c0-0.776-0.226-0.805-1.084-0.912c0,0-0.918-0.157-1.176-0.203c-0.119,0-84.807,0-84.925,0c-0.258,0.046-1.176,0.203-1.176,0.203   c-0.858,0.107-1.085,0.136-1.085,0.912c0,0.239,0.104,1.849,0.104,2.243c0,2.757-0.812,3.841-1.54,4.811   c-0.323,0.43-0.933,0.516-1.362,0.195S128.493,69.837,128.815,69.407L128.815,69.407z"/>
</g>
</svg>