<svg id="Layer_1" xmlns:rdf="http://www.w3.org/1999/02/22-rdf-syntax-ns#" xmlns="http://www.w3.org/2000/svg" xml:space="preserve" overflow="visible" height="324.98" viewBox="0 0 324.98 324.976" width="324.98" version="1.1" enable-background="new 0 0 324.975 324.976" xmlns:cc="http://creativecommons.org/ns#" xmlns:dc="http://purl.org/dc/elements/1.1/"><metadata id="metadata51"><rdf:RDF><cc:Work rdf:about=""><dc:format>image/svg+xml</dc:format><dc:type rdf:resource="http://purl.org/dc/dcmitype/StillImage"/><dc:title/></cc:Work></rdf:RDF></metadata>
<path id="path18" d="m162.49-0.003989c89.48,0,162.49,72.987,162.49,162.49,0,89.501-73.01,162.49-162.49,162.49-89.478,0-162.49-72.99-162.49-162.49,0-89.507,73.012-162.49,162.49-162.49" fill-rule="evenodd" fill="#FFF"/><path id="path3" fill="#253494" d="m64.231,112.37,6.232-10.633,24.843,14.56-6.232,10.633-24.843-14.56z"/>
<path id="path5" fill="#253494" d="m82.049,84.472,13.499-9.51,24.288,9.135-12.452-17.473,8.559-6.029,16.579,23.542-13.205,9.302-25.06-9.712,12.979,18.223-8.608,6.064-16.579-23.542z"/>
<path id="path7" fill="#253494" d="m140.55,52.112h18.943c5.342,0,12.422,0.358,17.079,2.393,6.646,2.912,8.448,7.658,8.448,11.926,0,6.382-3.168,11.088-12.236,13.362-4.596,1.117-10.061,1.117-13.167,1.117h-19.06v-28.798zm12.732,23.254h5.341c8.26-0.04,13.54-2.314,13.54-9.015,0-8.735-10.187-8.735-13.975-8.735l-4.906-0.04v17.79z"/>
<path id="path9" fill="#253494" d="m202.53,59.708,11.203,5.135-11.999,26.178-11.203-5.135,11.999-26.178z"/>
<path id="path11" fill="#253494" d="m240.95,84.903,9.549,11.04-10.622,31.729-8.844-10.226,2.416-6.045-11.311-13.076-6.291,1.565-7.827-9.049,32.93-5.938zm-5.29,20.949,5.499-12.112-0.118-0.136-13.052,3.38,7.671,8.868z"/>
<circle id="circle13" cy="162.49" cx="162.49" r="71.523" fill="#253494"/>
<path id="path15" fill="#FFF" d="m212.85,166.67c-1.634,1.84-3.121,3.328-4.195,4.356-0.529,0.505-0.954,0.895-1.25,1.161-2.171-1.074-10.078-4.73-20.272-6.364-1.199-14.69-8.721-26.858-10.458-29.504,2.363-3.705,5.693-7.718,8.484-10.832,2.29-2.558,4.196-4.501,4.918-5.228,5.646,0.471,11.153,1.881,15.268,3.195,3.479,1.11,5.94,2.14,6.702,2.467,5.371,7.771,8.952,16.863,10.172,26.694-2.366,5.445-6.148,10.435-9.369,14.055z"/>
<path id="path17" fill="#FFF" d="m117.57,172.19c-0.297-0.267-0.721-0.656-1.251-1.162-3.191-3.043-9.998-10.192-13.564-18.406,1.22-9.833,4.802-18.927,10.173-26.699,0.298-0.128,0.851-0.36,1.632-0.668,3.58-1.408,11.793-4.282,20.334-4.994,0.72,0.724,2.628,2.67,4.92,5.229,2.792,3.116,6.123,7.127,8.485,10.833-1.736,2.643-9.258,14.812-10.458,29.503-10.194,1.634-18.102,5.29-20.271,6.364z"/>
<path id="path19" fill="#FFF" d="m174.24,101.05c0.686,0.682,3.013,3.027,5.713,6.126,3.063,3.511,6.563,7.978,8.592,11.91-1.946,1.968-9.133,9.393-13.467,16.166-1.738-0.352-6.692-1.237-12.585-1.239-5.893,0.002-10.848,0.888-12.586,1.239-4.335-6.775-11.523-14.201-13.467-16.168,2.03-3.933,5.529-8.399,8.593-11.909,2.698-3.098,5.027-5.442,5.713-6.125,3.8-0.751,7.726-1.153,11.748-1.153,4.019-0.001,7.946,0.402,11.746,1.153z"/>
<path id="path21" fill="#FFF" d="m100.87,152.27c-0.895,0.879-4.446,4.376-7.943,7.857,0.563-16.933,7.168-32.324,17.732-44.103l0.646,8.873c-5.496,7.977-9.167,17.299-10.435,27.373z"/>
<path id="path23" fill="#FFF" d="m117.01,179.92c0.573-3.069,1.045-5.104,1.244-5.927,0.264-0.132,0.661-0.326,1.192-0.574,3.045-1.414,10.258-4.404,19.123-5.764,6.008,3.099,11.792,7.796,16.069,11.748,2.171,2.005,3.957,3.814,5.197,5.12,0.826,0.871,1.399,1.505,1.695,1.837v22.682c-0.296,0.165-0.731,0.399-1.297,0.688-3.417,1.748-11.445,5.319-20.749,6.027-7.374-3.052-14.014-7.517-19.57-13.073-1.88-1.88-3.626-3.892-5.245-6.005,0.682-7.008,1.594-12.756,2.341-16.759z"/>
<path id="path25" fill="#FFF" d="m185.49,215.76c-6.177-0.472-11.794-2.199-15.87-3.823-2.063-0.823-3.732-1.616-4.881-2.203-0.566-0.289-1-0.525-1.295-0.689v-22.684c0.295-0.333,0.869-0.967,1.694-1.834,3.679-3.879,12.199-12.196,21.257-16.867,5.878,0.898,11.032,2.513,14.727,3.915,1.877,0.713,3.378,1.371,4.405,1.847,0.533,0.248,0.931,0.444,1.194,0.576,0.199,0.824,0.671,2.859,1.242,5.924,0.746,4.003,1.658,9.753,2.34,16.762-1.618,2.112-3.364,4.124-5.244,6.004-5.557,5.554-12.196,10.02-19.569,13.072z"/>
<path id="path27" fill="#FFF" d="m224.1,152.27c-1.27-10.072-4.939-19.395-10.435-27.368l0.646-8.875c10.564,11.778,17.169,27.17,17.732,44.103-3.499-3.484-7.053-6.983-7.943-7.86z"/>
<path id="path29" fill="#FFF" d="m183.24,96.029-8.635,3.142c-3.92-0.775-7.97-1.19-12.118-1.19s-8.198,0.415-12.119,1.19l-8.635-3.142c6.555-2.045,13.525-3.146,20.754-3.146s14.199,1.101,20.753,3.146z"/>
<path id="path31" fill="#FFF" d="m102.32,197.5,10.883,0.417c6.544,8.517,15.238,15.295,25.281,19.505l2.298,11.213c-10.492-3.439-19.885-9.301-27.516-16.932-4.229-4.23-7.914-9.004-10.946-14.203z"/>
<path id="path33" fill="#FFF" d="m211.71,211.71c-7.632,7.631-17.025,13.492-27.518,16.932l2.299-11.213c10.042-4.211,18.736-10.988,25.281-19.505l10.883-0.417c-3.031,5.199-6.716,9.973-10.945,14.203z"/>
<path id="path35" fill="#253494" d="m162.49,282.14c48.693,0,90.589-29.088,109.27-70.834h-44.251c-14.834,19.726-38.435,32.483-65.017,32.483-26.583,0-50.183-12.758-65.018-32.483h-44.252c18.679,41.746,60.574,70.834,109.27,70.834z"/>
<path id="path37" fill="#FFF" d="m108.64,234.39,7.548,5.083-3.217,23.801-6.991-4.709,0.87-4.629-8.939-6.021-3.933,2.567-6.186-4.167,20.848-11.925zm-0.997,15.298,2.173-9.434-0.093-0.063-8.143,5.413,6.063,4.084z"/>
<path id="path39" fill="#FFF" d="m136.79,248.56,7.453,1.864-5.222,20.896-7.452-1.863,5.221-20.897z"/>
<path id="path41" fill="#FFF" d="m162.49,252.71,19.719-1.974,0.412,4.125-12.039,1.205,0.5,4.986,11.19-1.12,0.412,4.126-11.189,1.12,0.814,8.132-7.679,0.769-2.14-21.369z"/>
<path id="path43" fill="#FFF" d="m203.13,243.07,16.691-10.681,2.235,3.492-10.191,6.522,2.702,4.221,9.473-6.062,2.235,3.493-9.474,6.061,4.407,6.885-6.501,4.16-11.577-18.091z"/>
<path id="path45" fill="#253494" d="M157.67,31.98c9.64-12.928-8.66-23.248,9.64-31.98-9.637,12.928,8.662,23.248-9.637,31.98zm-7.37-31.593c-17.285,10.597,1.992,18.947-6.241,32.812,17.285-10.597-1.991-18.948,6.241-32.812zm-16.878,2.162c-16.083,12.346,3.961,18.635-2.777,33.285,16.084-12.346-3.961-18.635,2.777-33.285zm-16.558,3.915c-14.704,13.959,5.887,18.119,0.717,33.393,14.704-13.96-5.888-18.12-0.717-33.393zm-16.06,5.624c-13.164,15.42,7.749,17.405,4.204,33.135,13.164-15.42-7.75-17.405-4.204-33.135zm-15.383,7.272c-11.48,16.711,9.526,16.499,7.644,32.514,11.479-16.711-9.526-16.499-7.644-32.514zm-14.539,8.84c-9.671,17.82,11.198,15.413,11.001,31.537,9.671-17.82-11.198-15.413-11.001-31.537zm-13.535,10.312c-7.755,18.733,12.748,14.158,14.237,30.214,7.755-18.734-12.748-14.158-14.237-30.214zm-12.383,11.67c-5.754,19.441,14.158,12.748,17.317,28.56,5.755-19.441-14.158-12.748-17.317-28.56zm-11.096,12.9c-3.69,19.936,15.413,11.198,20.208,26.594,3.692-19.937-15.413-11.199-20.208-26.594zm-9.686,13.989c-1.586,20.212,16.5,9.525,22.877,24.336,1.588-20.216-16.499-9.529-22.877-24.339zm4.022,177.03c17.82,9.671,15.413-11.199,31.537-11.001-17.82-9.672-15.414,11.198-31.537,11.001zm10.311,13.535c18.733,7.755,14.158-12.748,30.214-14.238-18.733-7.755-14.158,12.749-30.214,14.238zm11.67,12.383c19.441,5.755,12.748-14.158,28.561-17.317-19.442-5.756-12.748,14.157-28.561,17.317zm12.901,11.095c19.936,3.69,11.198-15.413,26.594-20.209-19.937-3.69-11.199,15.414-26.594,20.209zm13.989,9.686c20.212,1.587,9.526-16.499,24.335-22.877-20.213-1.587-9.525,16.499-24.335,22.877zm14.925,8.171c20.268-0.534,7.749-17.404,21.811-25.296-20.268,0.535-7.749,17.405-21.811,25.296zm15.697,6.566c20.101-2.65,5.888-18.12,19.048-27.437-20.101,2.65-5.887,18.119-19.048,27.437zm16.298,4.889c19.714-4.736,3.961-18.636,16.075-29.277-19.714,4.736-3.961,18.635-16.075,29.277zm16.72,3.159c19.11-6.771,1.992-18.947,12.927-30.798-19.111,6.772-1.992,18.948-12.927,30.798zm16.958,1.394c18.298-8.732,0-19.052,9.637-31.979-18.299,8.732,0,19.051-9.637,31.979zm-141.66-232.99c0.535,20.269,17.405,7.749,25.296,21.812-0.534-20.271-17.405-7.75-25.296-21.814zm-6.566,15.697c2.651,20.102,18.119,5.888,27.437,19.048-2.65-20.101-18.119-5.887-27.437-19.048zm-4.889,16.299c4.737,19.713,18.636,3.96,29.278,16.074-4.737-19.713-18.635-3.961-29.278-16.074zm-3.158,16.72c6.772,19.109,18.947,1.99,30.797,12.926-6.772-19.11-18.948-1.99-30.797-12.93zm-1.394,16.96c8.732,18.299,19.052,0,31.979,9.638-8.731-18.299-19.051,0-31.979-9.638zm0.386,17.012c10.597,17.284,18.947-1.992,32.813,6.241-10.597-17.286-18.948,1.991-32.813-6.241zm2.163,16.877c12.346,16.082,18.636-3.961,33.285,2.777-12.346-16.083-18.636,3.961-33.285-2.777zm3.914,16.559c13.959,14.703,18.12-5.889,33.393-0.718-13.959-14.705-18.119,5.888-33.393,0.718zm5.624,16.059c15.42,13.164,17.405-7.749,33.136-4.204-15.42-13.165-17.405,7.75-33.136,4.204zm7.273,15.383c16.711,11.48,16.499-9.525,32.514-7.644-16.712-11.481-16.499,9.525-32.514,7.644zm155.32,84.023c17.284-10.597-1.991-18.947,6.241-32.813-17.285,10.597,1.992,18.948-6.241,32.813zm16.877-2.163c16.083-12.345-3.961-18.636,2.777-33.285-16.083,12.346,3.961,18.636-2.777,33.285zm16.56-3.914c14.703-13.96-5.888-18.12-0.718-33.394-14.705,13.959,5.888,18.119,0.718,33.394zm16.059-5.624c13.163-15.421-7.75-17.405-4.205-33.135-13.164,15.419,7.75,17.404,4.205,33.135zm15.382-7.273c11.48-16.711-9.525-16.5-7.644-32.514-11.48,16.712,9.526,16.5,7.644,32.514zm14.539-8.84c9.671-17.818-11.198-15.413-11.001-31.536-9.671,17.819,11.198,15.413,11.001,31.536zm13.536-10.311c7.754-18.733-12.749-14.159-14.238-30.214-7.755,18.733,12.748,14.157,14.238,30.214zm12.383-11.67c5.754-19.441-14.159-12.748-17.317-28.561-5.756,19.442,14.157,12.749,17.317,28.561zm11.094-12.9c3.691-19.937-15.412-11.199-20.207-26.594-3.692,19.936,15.414,11.198,20.207,26.594zm9.686-13.99c1.587-20.213-16.499-9.525-22.876-24.336-1.587,20.213,16.499,9.526,22.876,24.336zm-4.02-177.04c-17.819-9.67-15.412,11.199-31.537,11.001,17.82,9.671,15.414-11.199,31.537-11.001zm-10.32-13.535c-18.733-7.755-14.158,12.748-30.214,14.237,18.734,7.756,14.159-12.748,30.214-14.237zm-11.67-12.383c-19.44-5.755-12.748,14.158-28.561,17.317,19.443,5.755,12.75-14.158,28.561-17.317zm-12.9-11.096c-19.937-3.69-11.198,15.414-26.594,20.208,19.937,3.692,11.199-15.414,26.594-20.208zm-13.99-9.686c-20.212-1.587-9.525,16.5-24.335,22.876,20.213,1.588,9.525-16.498,24.335-22.876zm-14.92-8.171c-20.27,0.535-7.75,17.405-21.81,25.296,20.27-0.534,7.75-17.405,21.81-25.296zm-15.7-6.566c-20.101,2.651-5.888,18.12-19.048,27.437,20.101-2.65,5.888-18.119,19.048-27.437zm-16.3-4.889c-19.71,4.737-3.96,18.636-16.07,29.277,19.71-4.736,3.96-18.634,16.07-29.277zm-16.72-3.158c-19.111,6.771-1.993,18.947-12.929,30.798,19.113-6.772,1.993-18.949,12.929-30.798zm124.7,231.58c-0.535-20.268-17.405-7.748-25.296-21.812,0.535,20.269,17.405,7.75,25.296,21.812zm6.566-15.698c-2.65-20.101-18.119-5.887-27.438-19.048,2.651,20.102,18.12,5.888,27.438,19.048zm4.888-16.297c-4.736-19.714-18.636-3.961-29.277-16.075,4.736,19.713,18.636,3.96,29.277,16.075zm3.161-16.72c-6.773-19.11-18.948-1.991-30.799-12.927,6.771,19.111,18.948,1.992,30.799,12.927zm1.392-16.958c-8.732-18.298-19.052,0-31.979-9.637,8.731,18.299,19.051,0,31.979,9.637zm-0.387-17.011c-10.597-17.285-18.947,1.991-32.812-6.241,10.599,17.285,18.948-1.991,32.812,6.241zm-2.162-16.877c-12.346-16.083-18.636,3.96-33.284-2.777,12.346,16.083,18.635-3.961,33.284,2.777zm-3.915-16.559c-13.959-14.704-18.119,5.888-33.393,0.717,13.961,14.704,18.121-5.887,33.393-0.717zm-5.624-16.059c-15.419-13.165-17.404,7.749-33.135,4.203,15.42,13.165,17.405-7.749,33.135-4.203zm-7.272-15.384c-16.711-11.48-16.498,9.526-32.514,7.644,16.712,11.481,16.499-9.525,32.514-7.644z"/>
</svg>
