<svg
   xmlns="http://www.w3.org/2000/svg"
   xmlns:xlink="http://www.w3.org/1999/xlink"
   width="600.37903"
   height="600.36798"
   viewBox="0 0 450.28426 450.27598"
   fill-rule="evenodd"
   version="1.1"
   id="svg1126">
  <g
     id="g1124"
     transform="matrix(0.78792694,0,0,0.78792694,-8.551765,-107.42911)">
    <path
       fill="#FFFFFF"
       stroke="none"
       d="m 296.593,136.344 c -157.558,0 -285.7395,128.181 -285.7395,285.732 0,157.563 128.1815,285.737 285.7395,285.737 157.559,0 285.74,-128.174 285.74,-285.737 0,-157.551 -128.181,-285.732 -285.74,-285.732 z"
       id="path1062" />
    <path
       fill="#FBBB43"
       stroke="none"
       d="m 296.593,699.38 c 153.149,0 277.303,-124.147 277.303,-277.304 0,-153.144 -124.154,-277.3 -277.303,-277.3 -153.149,0 -277.302,124.156 -277.302,277.3 0,153.157 124.153,277.304 277.302,277.304 z"
       id="path1064" />
    <path
       fill="#FFEAA9"
       stroke="none"
       d="m 205.839,173.551 -3.633,1.326 c 0,0 7.918,19.805 9.049,22.632 -1.641,2.892 -30.725,54.074 -32.53,57.246 -3.79,0.308 -92.9008,7.478 -92.9008,7.478 l -1.0146,1.355 C 56.2124,301.739 38.4805,346.923 33.5293,394.252 l -0.5234,4.987 c 0,0 22.0234,-4.079 25.4882,-4.723 2.6109,2.995 50.0309,57.535 52.3719,60.216 -0.817,3.501 -18.8308,80.376 -19.7244,84.169 -3.3584,1.128 -27.2534,9.126 -27.2534,9.126 l 2.2339,3.956 c 28.872,51.108 74.5459,91.699 128.6059,114.287 l 4.105,1.713 c 0,0 3.878,-16.86 4.618,-20.083 3.805,-1.259 90.908,-29.882 93.142,-30.615 2.234,0.733 89.334,29.356 93.142,30.615 0.74,3.223 4.615,20.083 4.615,20.083 l 4.101,-1.713 c 54.061,-22.588 99.734,-63.179 128.606,-114.287 l 2.234,-3.956 c 0,0 -23.892,-7.998 -27.254,-9.126 -0.886,-3.793 -18.903,-80.668 -19.723,-84.169 2.343,-2.681 49.768,-57.221 52.376,-60.216 3.47,0.644 25.495,4.723 25.495,4.723 l -0.528,-4.987 c -4.951,-47.344 -22.69,-92.527 -51.284,-130.664 l -1.018,-1.355 c 0,0 -89.107,-7.17 -92.9,-7.478 -1.803,-3.172 -30.879,-54.354 -32.52,-57.246 1.127,-2.827 9.038,-22.632 9.038,-22.632 l -3.625,-1.326 c -29.048,-10.606 -59.582,-15.982 -90.755,-15.982 -31.179,0 -61.714,5.376 -90.754,15.982 z"
       id="path1066" />
    <path
       fill="#CA8D52"
       stroke="none"
       d="m 296.593,165.069 c 28.989,0 57.364,4.922 84.485,14.364 -2.007,5.024 -7.449,18.647 -7.449,18.647 l 36.269,63.838 c 0,0 89.825,7.229 93.34,7.507 26.2,35.405 42.627,76.948 48.084,120.55 -6.218,-1.158 -19.474,-3.618 -19.474,-3.618 l -57.708,66.353 21.555,91.978 c 0,0 16.039,5.376 22.221,7.441 -27.377,46.465 -69.053,83.481 -118.337,105.132 -1.172,-5.098 -3.486,-15.161 -3.486,-15.161 l -99.5,-32.71 -99.499,32.71 c 0,0 -2.319,10.063 -3.49,15.161 -49.289,-21.651 -90.963,-58.667 -118.3413,-105.132 6.1777,-2.065 22.229,-7.441 22.229,-7.441 L 119.047,452.71 61.3428,386.357 c 0,0 -13.2603,2.46 -19.4785,3.618 5.4531,-43.594 21.8774,-85.137 48.0761,-120.55 3.5157,-0.278 93.3436,-7.507 93.3436,-7.507 l 36.277,-63.838 c 0,0 -5.446,-13.623 -7.456,-18.647 27.118,-9.442 55.499,-14.364 84.488,-14.364 z"
       id="path1068" />
    <path
       fill="#FFEAA9"
       stroke="none"
       d="m 483.573,282.286 -76.977,-5.61 -111.38,-77.959 -2.153,1.509 -109.222,76.45 -74.656,5.434 -2.333,0.176 -36.2143,89.818 61.6073,60.128 54.716,-31.044 14.366,-51.848 22.277,76.486 h 143.228 l 22.273,-76.479 14.371,51.841 54.712,31.044 61.603,-60.128 z"
       id="path1070" />
    <path
       fill="#FBBB43"
       stroke="none"
       d="m 180.56,396.192 c -2.429,1.385 -42.792,24.288 -47.114,26.742 -3.636,-3.553 -50.7199,-49.512 -53.9753,-52.691 1.7319,-4.292 30.9733,-76.816 32.5893,-80.823 3.827,-0.278 56.997,-4.145 70.327,-5.112 l 14.952,51.336 c -2.274,8.195 -16.055,57.934 -16.779,60.548 z"
       id="path1072" />
    <path
       fill="#FBBB43"
       stroke="none"
       d="m 456.986,422.934 c -4.321,-2.454 -44.677,-25.365 -47.109,-26.742 -0.725,-2.614 -14.494,-52.28 -16.787,-60.527 l 14.963,-51.357 c 13.323,0.967 66.482,4.834 70.312,5.112 1.619,4.007 30.858,76.531 32.594,80.823 -3.252,3.179 -50.332,49.138 -53.973,52.691 z"
       id="path1074" />
    <path
       fill="#FBBB43"
       stroke="none"
       d="m 295.216,207.872 c 4.051,2.835 101.587,71.104 105.733,74.004 -1.422,4.878 -38.255,131.346 -39.742,136.45 -5.287,0 -126.69,0 -131.978,0 -1.487,-5.104 -38.321,-131.572 -39.742,-136.45 4.146,-2.9 101.679,-71.169 105.729,-74.004 z"
       id="path1076" />
    <path
       fill="#CA8D52"
       stroke="none"
       d="m 293.51,218.185 -97.119,67.983 36.778,126.277 h 122.839 l 36.781,-126.277 -98.203,-68.73 z"
       id="path1078" />
    <path
       fill="#FBBB43"
       stroke="none"
       d="m 294.586,222.008 c 2.081,1.458 91.722,64.204 93.854,65.698 -0.726,2.498 -34.483,118.374 -35.245,120.989 -2.717,0 -114.5,0 -117.214,0 -0.761,-2.615 -34.511,-118.491 -35.24,-120.989 2.128,-1.494 91.765,-64.24 93.845,-65.698 z"
       id="path1080" />
    <path
       fill="#CA8D52"
       stroke="none"
       d="m 176.417,291.23 -62.039,4.511 -28.5723,70.869 48.3873,47.242 42.854,-24.325 14.458,-52.169 -13.579,-46.239 z"
       id="path1082" />
    <path
       fill="#FBBB43"
       stroke="none"
       d="m 175.18,295.074 c 0.787,2.689 12.143,41.346 12.429,42.313 -0.278,0.996 -13.363,48.215 -13.762,49.65 -1.264,0.718 -36.783,20.874 -39.053,22.156 -1.894,-1.845 -42.8799,-41.858 -44.5713,-43.505 0.8935,-2.22 25.9273,-64.307 26.7583,-66.372 2.19,-0.162 55.386,-4.037 58.199,-4.242 z"
       id="path1084" />
    <path
       fill="#CA8D52"
       stroke="none"
       d="m 412.074,292.569 -13.146,44.789 14.457,52.169 42.854,24.325 48.392,-47.242 -28.58,-70.869 -63.545,-4.622 z"
       id="path1086" />
    <path
       fill="#FBBB43"
       stroke="none"
       d="m 415.246,295.074 c 2.819,0.205 56.016,4.08 58.197,4.242 0.836,2.057 25.869,64.152 26.764,66.372 -1.685,1.647 -42.679,41.66 -44.568,43.505 -2.271,-1.282 -37.793,-21.438 -39.061,-22.156 -0.394,-1.435 -13.476,-48.654 -13.754,-49.65 0.285,-0.967 11.638,-39.624 12.422,-42.313 z"
       id="path1088" />
    <path
       fill="#FFEAA9"
       stroke="none"
       d="M 284.208,457.544 H 154.621 l -23.215,102.29 72.32,54.961 84.232,-29.048 V 457.544 Z"
       id="path1090" />
    <path
       fill="#FBBB43"
       stroke="none"
       d="m 280.458,465.044 c 0,6.885 0,110.405 0,115.357 -4.622,1.596 -71.891,24.785 -75.385,26 -2.959,-2.255 -61.735,-46.918 -65.284,-49.614 0.989,-4.35 19.607,-86.396 20.823,-91.743 5.533,0 112.954,0 119.846,0 z"
       id="path1092" />
    <path
       fill="#FFEAA9"
       stroke="none"
       d="M 432.816,457.544 H 302.475 v 128.203 l 84.228,29.048 72.319,-54.961 -23.21,-102.29 z"
       id="path1094" />
    <path
       fill="#FBBB43"
       stroke="none"
       d="m 429.82,465.044 c 1.217,5.347 19.834,87.393 20.824,91.743 -3.545,2.696 -62.329,47.359 -65.289,49.614 -3.494,-1.215 -70.759,-24.404 -75.38,-26 0,-4.952 0,-108.472 0,-115.357 6.892,0 114.308,0 119.845,0 z"
       id="path1096" />
    <path
       fill="#CA8D52"
       stroke="none"
       d="M 424.438,469.937 H 316.002 v 105.717 l 69.391,23.921 59.669,-45.351 -19.13,-84.287 z"
       id="path1098" />
    <path
       fill="#FBBB43"
       stroke="none"
       d="m 422.943,473.687 c 0.63,2.783 17.417,76.772 17.93,79.013 -1.831,1.392 -54.631,41.514 -56.154,42.671 -1.81,-0.63 -62.565,-21.577 -64.967,-22.397 0,-2.549 0,-95.713 0,-99.287 3.567,0 100.328,0 103.191,0 z"
       id="path1100" />
    <path
       fill="#CA8D52"
       stroke="none"
       d="M 275.302,469.937 H 167.251 l -19.127,84.287 59.667,45.351 69.386,-23.921 V 469.937 Z"
       id="path1102" />
    <path
       fill="#FFFFFF"
       stroke="none"
       d="m 343.465,343.209 c 5.757,-9.411 8.88,-19.951 8.88,-30.762 0,-4.13 -0.432,-8.291 -1.305,-12.422 -3.292,-15.534 -12.444,-28.857 -25.769,-37.514 -13.5,-8.775 -30.257,-11.792 -45.965,-8.269 -15.363,3.443 -28.307,12.59 -36.439,25.767 -0.286,0.461 -0.425,0.937 -0.689,1.398 -5.775,9.427 -8.91,19.995 -8.91,30.835 0,4.124 0.433,8.284 1.309,12.422 3.293,15.528 12.441,28.851 25.765,37.508 13.501,8.774 30.257,11.792 45.966,8.269 15.355,-3.443 28.291,-12.59 36.431,-25.752 v 0 0 c 0.007,-0.007 0.007,-0.015 0.014,-0.022 0.301,-0.483 0.448,-0.975 0.712,-1.458 z"
       id="path1104" />
    <path
       fill="#FBBB43"
       stroke="none"
       d="m 273.427,473.687 c 0,3.574 0,96.723 0,99.287 -2.395,0.82 -63.157,21.767 -64.962,22.397 -1.527,-1.157 -54.317,-41.279 -56.151,-42.671 0.508,-2.241 17.303,-76.23 17.933,-79.013 2.857,0 99.613,0 103.18,0 z"
       id="path1106" />
    <path
       fill="#E31647"
       stroke="none"
       d="m 280.949,261.559 c 13.75,-3.083 28.409,-0.44 40.231,7.236 11.637,7.566 19.637,19.212 22.511,32.783 0.763,3.612 1.144,7.244 1.144,10.855 0,1.128 -0.41,2.19 -0.482,3.31 -2.208,-4.665 -5.406,-8.774 -9.307,-11.813 -10.296,-8.021 -28.24,-11.317 -44.931,5.801 -13.207,13.542 -26.7,11.528 -34.928,5.119 -5.515,-4.299 -9.453,-11.272 -9.453,-18.853 0,-3.947 1.064,-8.063 3.528,-12.048 7.062,-11.448 18.318,-19.394 31.687,-22.39 z"
       id="path1108" />
    <path
       fill="#0077BB"
       stroke="none"
       d="m 295.498,314.96 c 13.207,-13.55 26.708,-11.528 34.935,-5.127 5.515,4.299 9.453,11.272 9.453,18.853 0,3.947 -1.064,8.056 -3.528,12.041 -7.069,11.447 -18.325,19.401 -31.693,22.397 -13.75,3.083 -28.402,0.44 -40.231,-7.236 -11.638,-7.567 -19.638,-19.204 -22.513,-32.777 -0.762,-3.61 -1.144,-7.251 -1.144,-10.854 0,-1.128 0.411,-2.197 0.484,-3.311 2.207,4.659 5.404,8.768 9.306,11.807 10.296,8.027 28.241,11.323 44.931,-5.793 z"
       id="path1110" />
    <path
       fill="#FFEAA9"
       stroke="none"
       d="m 204.839,434.605 c 0,0 -37.075,41.997 -47.128,53.378 0,-13.769 0,-53.378 0,-53.378 h -36.276 v 153.94 h 36.276 c 0,0 0,-49.116 0,-51.855 1.249,-1.363 5.838,-6.387 9.207,-10.079 4.665,7.046 41.052,61.934 41.052,61.934 h 46.172 c 0,0 -58.579,-85.181 -61.805,-89.868 3.83,-4.087 60.069,-64.072 60.069,-64.072 z"
       id="path1112" />
    <path
       fill="#FBBB43"
       stroke="none"
       d="m 235.092,442.105 c -9.474,10.107 -52.358,55.854 -52.358,55.854 0,0 50.124,72.876 57.14,83.086 -8.668,0 -25.008,0 -27.875,0 -2.11,-3.193 -44.136,-66.577 -44.136,-66.577 l -17.652,19.307 c 0,0 0,40.854 0,47.27 -4.822,0 -16.453,0 -21.276,0 0,-6.943 0,-132.012 0,-138.94 4.823,0 16.454,0 21.276,0 0,6.577 0,65.712 0,65.712 0,0 55.866,-63.281 58.012,-65.712 2.333,0 17.278,0 26.869,0 z"
       id="path1114" />
    <path
       fill="#FFEAA9"
       stroke="none"
       d="m 257.833,434.605 v 153.94 h 36.27 c 0,0 0,-54.99 0,-61.597 6.599,0 60.629,0 60.629,0 V 493.55 c 0,0 -54.03,0 -60.629,0 0,-5.142 0,-20.405 0,-25.547 6.709,0 69.265,0 69.265,0 v -33.398 z"
       id="path1116" />
    <path
       fill="#FBBB43"
       stroke="none"
       d="m 355.868,442.105 c 0,4.555 0,13.842 0,18.398 -6.709,0 -69.265,0 -69.265,0 v 40.547 c 0,0 54.031,0 60.629,0 0,4.556 0,13.843 0,18.398 -6.598,0 -60.629,0 -60.629,0 0,0 0,54.976 0,61.597 -4.819,0 -16.45,0 -21.27,0 0,-6.943 0,-132.012 0,-138.94 6.658,0 83.878,0 90.535,0 z"
       id="path1118" />
    <path
       fill="#FFEAA9"
       stroke="none"
       d="m 414.447,434.605 -51.636,153.94 h 38.269 c 0,0 8.211,-25.825 9.596,-30.19 4.629,0 40.553,0 45.285,0 1.311,4.482 8.826,30.19 8.826,30.19 h 39.279 l -51.02,-153.94 z m 18.948,49.218 c 3.882,13.169 10.429,35.391 12.304,41.748 -6.13,0 -18.845,0 -25.026,0 1.948,-6.401 8.724,-28.608 12.722,-41.748 z"
       id="path1120" />
    <path
       fill="#FBBB43"
       stroke="none"
       d="m 447.626,442.105 c 1.589,4.79 43.059,129.902 46.055,138.94 -6.446,0 -19.468,0 -23.269,0 -1.311,-4.482 -8.826,-30.19 -8.826,-30.19 h -56.389 c 0,0 -8.211,25.825 -9.595,30.19 -3.684,0 -15.997,0 -22.361,0 3.04,-9.067 45,-134.18 46.597,-138.94 4.152,0 23.628,0 27.788,0 z m -37.075,90.966 h 45.183 l -22.031,-74.736 z"
       id="path1122" />
  </g>
</svg>