<svg
   xmlns="http://www.w3.org/2000/svg"
   xmlns:xlink="http://www.w3.org/1999/xlink"
   width="500.01199"
   height="403.19699"
   viewBox="0 0 375.00898 302.39774"
   fill-rule="evenodd"
   version="1.1"
   id="svg221">
  <g
     id="g219"
     transform="matrix(0.65576548,0,0,0.65576548,-6.5576548,-119.02865)">
    <path
       style="fill:#E21C2A;stroke:none"
       d="m 492.32,512.45 c 29.397,6.679 57.471,18.716 57.471,18.716 -6.68,-8.017 -30.736,-25.395 -30.736,-25.395 l 20.047,8.022 -8.018,-9.365 c 13.365,4.015 30.736,10.699 30.736,10.699 -54.798,-68.161 -181.773,-72.172 -257.957,-72.172 -76.182,0 -176.422,20.046 -185.769,24.057 -9.356,4.012 -14.71,12.033 -10.699,20.047 4,8.012 15.993,49.307 16.03,49.439 54.302,-16.482 116.283,-19.739 160.896,-21.073 76.146,-2.285 176.945,14.758 186.406,18.484 2.82,1.11 5.232,2.617 7.218,4.362 5.065,1.622 9.856,3.273 14.375,4.924 34.534,12.63 89.545,18.712 89.545,18.712 C 555.135,541.852 492.32,512.45 492.32,512.45 Z"
       id="path135" />
    <path
       style="fill:#30528A;stroke:none"
       d="m 467.469,603.539 c 0,0 10.785,-41.776 14.553,-49.91 3.763,-8.13 -1.829,-15.993 -11.295,-19.72 -9.461,-3.726 -110.26,-20.769 -186.406,-18.484 -76.154,2.281 -202.9514,10.094 -255.6833,79.868 0,0 17.1636,-7.211 30.4004,-11.613 l -7.7329,9.589 19.7939,-8.61 c 0,0 -23.5254,18.087 -29.9619,26.296 0,0 27.7095,-12.859 56.8926,-20.429 0,0 -61.9204,31.283 -88.0298,52.122 0,0 54.8076,-7.72 88.9482,-21.385 54.1738,-21.679 144.4178,-44.449 368.5208,-17.724 z"
       id="path137" />
    <path
       fill="#1F211D" stroke="none"
       d="m 431.002,554.473 h -37.826 c 0,0 -2.565,-7.033 -3.553,-9.739 -3.816,0 -20.918,0 -24.777,0 -0.955,2.724 -3.422,9.739 -3.422,9.739 h -37.356 l 11.498,-25.922 c -4.273,0 -26.834,0 -31.972,0 0,5.32 0,25.922 0,25.922 H 231.86 c 0,0 -17.075,-22.882 -20.741,-27.798 -1.418,1.203 -2.078,1.763 -2.933,2.495 0,2.859 0,25.303 0,25.303 h -37.103 v -80.958 h 37.103 c 0,0 0,12.29 0,19.364 7.138,-6.491 21.295,-19.364 21.295,-19.364 h 115.216 v 24.378 c 0,0 -35.132,0 -41.103,0 0,2.449 0,3.82 0,6.268 5.679,0 32.736,0 32.736,0 v 22.664 l 23.647,-53.31 h 35.117 z M 266.486,481.359 c -10.333,8.6 -25.85,21.52 -28.847,24.011 2.505,3.125 18.05,22.499 28.847,35.96 z m 115.315,40.838 c -1.324,-3.637 -2.412,-6.613 -4.455,-12.214 -1.963,5.605 -3.002,8.577 -4.278,12.214 3.42,0 5.285,0 8.733,0 z"
       id="path139" />
    <path
       style="fill:#FDFDFF;stroke:none"
       d="m 174.665,477.096 h 29.939 v 23.881 l 26.263,-23.881 h 35.143 l -33.366,27.775 36.921,46.021 h -35.909 l -21.949,-29.422 -7.103,6.045 v 23.377 h -29.939 z"
       id="path141" />
    <path
       style="fill:#FDFDFF;stroke:none"
       d="m 270.068,550.892 v -73.796 h 71.047 v 17.216 h -41.103 v 13.432 h 32.736 v 17.224 h -32.736 v 25.924 z"
       id="path143" />
    <path
       style="fill:#FDFDFF;stroke:none"
       d="m 392.762,477.096 h -30.453 l -32.733,73.796 h 29.311 l 3.422,-9.74 h 29.818 l 3.555,9.74 h 29.81 z m -24.744,48.683 9.263,-26.435 9.641,26.435 z"
       id="path145" />
    <path
       fill="#1F211D" stroke="none"
       d="m 125.599,412.583 -2.379,-8.181 8.074,-2.351 -10.159,-4.813 -2.798,-9.603 12.052,6.376 12.621,-14.609 2.845,9.805 -8.195,8.889 2.607,1.348 7.902,-2.304 2.378,8.181 z"
       id="path147" />
    <path
       fill="#1F211D" stroke="none"
       d="m 142.805,367.962 c -0.789,-7.645 -6.363,-13.046 -15.154,-12.141 -6.823,0.714 -13.008,5.756 -12.052,14.972 0.835,8.041 6.684,12.984 14.79,12.141 8.796,-0.906 13.259,-6.856 12.416,-14.972 l -6.316,0.657 c 0.42,4.058 -3.6,5.495 -6.903,5.835 -3.264,0.336 -7.261,-0.406 -7.658,-4.249 -0.504,-3.712 3.083,-5.545 6.6,-5.909 4.277,-0.434 7.579,0.667 7.961,4.323"
       id="path149" />
    <path
       fill="#1F211D" stroke="none"
       d="m 114.951,352.612 0.849,-12.233 c 0.606,-8.643 3.143,-11.32 8.185,-10.975 2.99,0.215 5.415,1.721 6.031,4.809 1.198,-2.673 1.968,-4.277 7.183,-3.923 3.381,0.238 4.524,0.429 4.598,-0.578 l 0.793,0.051 -0.602,8.606 c -0.592,0.177 -2.261,0.275 -4.561,0.116 -3.382,-0.233 -4.543,0.257 -4.818,4.221 l -0.177,2.593 9.029,0.625 -0.592,8.507 -25.918,-1.819 6.641,-8.068 5.14,0.354 0.243,-3.344 c 0.182,-2.635 -0.373,-4.081 -2.164,-4.202 -1.843,-0.136 -2.808,1.25 -2.948,3.227 l -0.271,3.965"
       id="path151" />
    <path
       fill="#1F211D" stroke="none"
       d="m 142.907,329.096 -25.27,-6.026 4.907,-20.606 5.9,1.409 -2.939,12.322 3.615,0.863 2.486,-10.429 5.9,1.409 -2.486,10.424 3.969,0.952 3.06,-12.817 5.89,1.399 z"
       id="path153" />
    <path
       fill="#1F211D" stroke="none"
       d="m 151.209,291.215 3.554,0.401 3.302,-7.808 -27.555,-1.553 -3.377,7.971 20.298,18.703 3.256,-7.677 -2.78,-2.234 3.302,-7.803 -5.559,-0.746 -2.09,4.944 -7.556,-6.045 9.646,1.101"
       id="path155" />
    <path
       fill="#1F211D" stroke="none"
       d="m 163.019,275.964 -21.115,-15.159 11.786,-16.422 4.926,3.539 -6.819,9.497 3.843,2.761 5.429,-7.565 4.925,3.535 -5.429,7.561 7.416,5.326 z"
       id="path157" />
    <path
       fill="#1F211D" stroke="none"
       d="m 183.886,251.169 c -5.747,5.793 -13.172,6.101 -19.44,-0.131 -5.798,-5.727 -5.681,-13.39 0.014,-19.132 6.525,-6.585 14.346,-4.99 19.216,-0.158 6.273,6.231 5.62,13.964 0.21,19.421 l -4.506,-4.473 c 2.594,-2.607 1.344,-5.876 -1.702,-8.899 -2.514,-2.486 -6.194,-4.109 -8.755,-1.366 -2.714,2.738 -0.769,6.31 1.567,8.619 2.356,2.341 6.017,4.542 8.89,1.646"
       id="path159" />
    <path
       fill="#1F211D" stroke="none"
       d="m 203.643,234.5 c 6.301,-4.412 8.32,-11.903 3.246,-19.142 -3.941,-5.62 -11.343,-8.582 -18.946,-3.255 -6.613,4.645 -8.087,12.154 -3.404,18.833 5.074,7.244 12.434,8.246 19.104,3.564 l -3.639,-5.201 c -3.339,2.356 -6.543,-0.471 -8.456,-3.194 -1.879,-2.687 -3.171,-6.54 -0.018,-8.755 3.017,-2.243 6.352,0 8.381,2.896 2.463,3.508 3.107,6.941 0.093,9.053"
       id="path161" />
    <path
       fill="#1F211D" stroke="none"
       d="m 202.089,203.488 21.497,-10.256 2.938,6.157 -6.902,3.283 8.255,17.294 -7.687,3.676 -8.255,-17.295 -6.903,3.293 z"
       id="path163" />
    <path
       fill="#1F211D" stroke="none"
       d="m 234.631,216.767 12.15,-3.563 c 6.478,-1.904 10.176,-5.084 8.539,-10.653 -0.793,-2.701 -2.929,-4.599 -5.83,-4.496 1.297,-1.474 2.416,-3.839 1.661,-6.39 -1.446,-4.953 -6.306,-4.963 -11.913,-3.321 l -11.916,3.494 9.883,3.418 2.873,-0.839 c 1.731,-0.514 3.331,-0.937 3.899,0.998 0.42,1.455 -0.541,2.532 -2.168,2.999 l -3.391,1.003 -1.213,-4.161 -9.883,-3.418 7.309,24.929 6.464,-8.209 -1.344,-4.608 2.589,-0.756 c 2.599,-0.773 4.553,-1.184 5.187,0.998 0.546,1.866 -0.854,2.724 -2.859,3.321 l -3.573,1.045"
       id="path165" />
    <path
       fill="#1F211D" stroke="none"
       d="m 264.471,205.843 8.428,-0.997 1.4,3.274 8.428,-0.989 -12.309,-24.71 -8.606,1.026 -6.184,26.902 8.279,-0.984 0.564,-3.522 0.98,-5.568 1.511,-9.552 3.825,8.917 -5.336,0.635"
       id="path167" />
    <path
       fill="#1F211D" stroke="none"
       d="m 282.27,207.485 0.885,-25.974 8.517,0.304 -0.681,19.906 11.683,0.396 -0.209,6.063 z"
       id="path169" />
    <path
       fill="#1F211D" stroke="none"
       d="m 303.16,208.362 4.588,-25.582 8.387,1.516 -3.522,19.598 11.512,2.071 -1.074,5.961 z"
       id="path171" />
    <path
       fill="#1F211D" stroke="none"
       d="m 340.35,214.281 -2.233,2.785 -7.674,-3.256 18.696,-20.298 7.978,3.377 -1.552,27.555 -7.803,-3.302 0.4,-3.559 -7.812,-3.302 3.607,-4.352 4.951,2.095 1.108,-9.646 -6.059,7.551"
       id="path173" />
    <path
       fill="#1F211D" stroke="none"
       d="m 375.867,215.797 c 0.356,-0.844 0.252,-1.549 -0.107,-2.15 -0.34,-0.602 -0.899,-1.12 -1.608,-1.563 -1.586,-0.997 -2.584,-0.984 -3.08,-0.182 -2.08,3.293 11.875,9.184 6.844,17.197 -3.205,5.102 -9.008,4.916 -15.057,1.119 -5.806,-3.638 -7.476,-9.412 -5.131,-13.479 l 6.909,4.324 c -0.346,0.891 -0.285,1.744 0.097,2.49 0.36,0.733 1.004,1.395 1.711,1.842 1.801,1.13 3.36,1.288 4.008,0.253 2.094,-3.331 -12.002,-8.975 -6.736,-17.379 2.939,-4.673 8.447,-4.496 13.945,-1.05 6.121,3.839 6.955,8.69 5.053,12.869 z"
       id="path175" />
    <path
       fill="#1F211D" stroke="none"
       d="m 401.795,236.286 c 2.514,-3.838 2.426,-8.769 -3.031,-13.484 -4.916,-4.253 -10.34,-5.261 -13.946,-1.082 -6.488,7.5 6.586,15.223 4.016,18.2 -0.803,0.932 -2.312,0.531 -3.922,-0.863 -0.631,-0.546 -1.172,-1.302 -1.414,-2.067 -0.252,-0.802 -0.191,-1.651 0.285,-2.481 l -6.17,-5.331 c -2.929,3.671 -2.166,9.631 3.022,14.109 5.41,4.669 11.119,5.737 15.06,1.175 6.18,-7.154 -6.713,-15.093 -4.16,-18.041 0.61,-0.708 1.59,-0.582 3.018,0.644 0.623,0.541 1.099,1.157 1.351,1.801 0.252,0.643 0.252,1.362 -0.222,2.145 z"
       id="path177" />
    <path
       fill="#1F211D" stroke="none"
       d="m 418.693,243.114 c 5.934,7.136 3.582,14.757 -1.689,19.146 -6.805,5.648 -14.444,4.249 -19.35,-1.67 -5.211,-6.268 -4.81,-13.684 1.996,-19.337 6.274,-5.214 13.875,-4.356 19.043,1.861 l -4.929,4.007 c -2.469,-2.971 -6.204,-1.371 -8.737,0.727 -2.55,2.127 -5.097,5.555 -2.49,8.694 2.35,2.831 5.719,1.912 9.02,-0.835 2.718,-2.262 4.683,-5.769 2.207,-8.586"
       id="path179" />
    <path
       fill="#1F211D" stroke="none"
       d="m 428.734,276.789 c 2.215,-1.563 2.721,-3.81 1.395,-6.124 -1.496,-2.603 -4.617,-2.887 -8.963,-0.392 -3.162,1.819 -5.742,4.207 -3.582,7.966 1.361,2.374 3.664,2.556 5.988,1.591 l 4.086,7.108 c -6.203,2.681 -12.103,0.536 -15.517,-5.415 -4.268,-7.444 -2.286,-14.58 5.037,-18.787 7.289,-4.179 14.668,-1.842 18.273,4.449 3.961,6.884 2.748,12.687 -2.691,16.614 z"
       id="path181" />
    <path
       fill="#1F211D" stroke="none"
       d="m 418.525,292.324 23.913,-10.148 3.33,7.845 -23.922,10.139 z"
       id="path183" />
    <path
       fill="#1F211D" stroke="none"
       d="m 428.109,307.567 2.338,8.144 -3.013,1.93 2.341,8.139 22.397,-16.129 -2.389,-8.315 -27.541,-1.772 2.305,8.012 3.562,-0.009 5.649,0.061 9.674,-0.042 -8.192,5.214 -1.482,-5.172"
       id="path185" />
    <path
       fill="#1F211D" stroke="none"
       d="m 454.223,316.746 3.363,23.581 -6.752,0.961 -1.078,-7.575 -18.969,2.706 -1.209,-8.433 18.979,-2.705 -1.077,-7.574 z"
       id="path187" />
    <path
       fill="#1F211D" stroke="none"
       d="m 431.463,344.273 25.965,-0.755 0.252,8.516 -25.975,0.756 z"
       id="path189" />
    <path
       fill="#1F211D" stroke="none"
       d="m 457.475,369.967 c 0.798,-8.055 -3.936,-14.067 -12.057,-14.874 -8.797,-0.867 -14.356,4.058 -15.162,12.174 -0.76,7.649 3.605,14.067 12.41,14.934 6.82,0.672 13.894,-3.013 14.809,-12.234 l -6.311,-0.704 c -0.269,3.741 -4.141,4.809 -7.658,4.459 -4.281,-0.42 -7.295,-2.164 -6.932,-5.83 0.397,-4.057 4.637,-4.659 7.934,-4.328 3.271,0.326 7.029,1.86 6.656,5.699"
       id="path191" />
    <path
       fill="#1F211D" stroke="none"
       d="m 435.871,401.417 5.77,1.348 7.933,2.318 -2.285,7.822 -24.947,-7.272 2.242,-7.658 16.17,-4.934 -5.77,-1.349 -7.896,-2.308 2.291,-7.826 24.937,7.276 -2.238,7.649 z"
       id="path193" />
    <path
       style="fill:#009543;stroke:none"
       d="m 266.22,375.476 -21.571,-38.33 29.766,-32.35 39.999,18.326 -5.084,43.683 z"
       id="path195" />
    <path
       style="fill:#009543;stroke:none"
       d="m 285.273,248.972 c -6.777,-0.14 -14.253,0.518 -21.165,1.912 -6.372,1.283 -12.584,3.415 -18.344,5.859 l -10.014,15.363 34.103,1.255 30.979,-14.338 z"
       id="path197" />
    <path
       style="fill:#009543;stroke:none"
       d="m 189.464,350.215 11.207,14.869 12.505,-31.753 -3.218,-33.982 -14.846,10.928 c -4.548,12.262 -6.651,26.282 -5.648,39.938 z"
       id="path199" />
    <path
       style="fill:#009543;stroke:none"
       d="m 371.885,315.365 -5.145,16.926 -23.512,-24.724 -9.765,-32.719 17.326,4.119 c 9.779,10.326 16.785,22.07 21.096,36.398 z"
       id="path201" />
    <path
       style="fill:#009543;stroke:none"
       d="m 338.605,417.733 c 12.026,-8.909 20.854,-19.273 27.417,-32.547 l -2.131,-17.173 -27.565,20.149 -15.428,30.428 z"
       id="path203" />
    <path
       style="fill:#009543;stroke:none"
       d="m 221.855,413.833 -4.612,-16.987 33.096,8.349 25.727,22.434 -16.418,5.882 c -14.561,-3.555 -26.584,-9.93 -37.793,-19.678 z"
       id="path205" />
    <path
       fill="#1F211D" stroke="none"
       d="m 295.963,238.273 c -6.773,-0.135 -14.253,0.518 -21.165,1.912 -6.372,1.288 -12.584,3.419 -18.349,5.859 l -10.009,15.372 34.103,1.245 30.98,-14.332 z"
       id="path207" />
    <path
       fill="#1F211D" stroke="none"
       d="m 200.154,339.521 11.207,14.869 12.505,-31.749 -3.218,-33.991 -14.851,10.932 c -4.543,12.262 -6.646,26.287 -5.643,39.939 z"
       id="path209" />
    <path
       fill="#1F211D" stroke="none"
       d="m 382.574,304.666 -5.144,16.935 -23.51,-24.729 -9.772,-32.709 17.327,4.105 c 9.785,10.326 16.791,22.07 21.099,36.398 z"
       id="path211" />
    <path
       fill="#1F211D" stroke="none"
       d="m 349.291,407.042 c 12.035,-8.908 20.859,-19.277 27.416,-32.546 l -2.127,-17.178 -27.564,20.149 -15.428,30.433 z"
       id="path213" />
    <path
       fill="#1F211D" stroke="none"
       d="m 232.545,403.148 -4.612,-17.001 33.096,8.349 25.722,22.444 -16.413,5.872 c -14.565,-3.555 -26.585,-9.921 -37.793,-19.664 z"
       id="path215" />
    <path
       fill="#1F211D" stroke="none"
       d="m 276.906,364.781 -21.567,-38.325 29.77,-32.359 39.994,18.33 -5.083,43.683 z"
       id="path217" />
  </g>
</svg>