<svg
   xmlns="http://www.w3.org/2000/svg"
   xmlns:xlink="http://www.w3.org/1999/xlink"
   width="300.242"
   height="534.45203"
   viewBox="0 0 79.439029 141.4071"
   version="1.1"
   id="svg68">
  <g
     id="g66"
     transform="scale(0.60030446)">
    <path
       fill="#021858"
       d="M 12.692855,5.664608 H 119.63839 v 54.469293 l 5.66459,4.484472 V 0 H 7.0282713 v 64.618373 l 5.6645837,-4.484472 z m 0,0"
       id="path20-4" />
    <path
       fill="#021858"
       d="M 119.63839,176.99246 H 12.692855 v -54.23331 l -5.6908373,-4.43202 v 64.32992 H 125.30298 v -64.32992 l -5.66459,4.43202 z m 0,0"
       id="path22-1" />
    <path
       fill="#FFFFFF"
       d="M 132.33123,70.151851 119.63839,60.133901 V 5.664608 H 12.692855 V 60.133901 L 0,70.151851 6.8447192,92.810233 0.31467146,113.05592 12.692855,122.75915 v 54.23331 H 119.63839 v -54.23331 l 12.35194,-9.70323 -6.5038,-20.245687 z m 0,0"
       id="path24-5" />
    <path
       fill="#EC0F32"
       d="m 20.953744,13.925473 h 90.423746 v 39.704639 l 3.19942,2.517596 V 10.726028 H 17.754312 v 45.42168 l 3.199432,-2.517596 z m 0,0"
       id="path26-0" />
    <path
       fill="#EC0F32"
       d="M 111.37749,168.73159 H 20.953744 v -39.49485 l -3.199432,-2.51761 v 45.21189 h 96.822598 v -45.21189 l -3.19942,2.51761 z m 0,0"
       id="path28-2" />
    <path
       fill="#021858"
       d="M 66.165585,84.339562 58.63904,41.461723 27.588645,52.161509 61.313995,34.77434 66.165585,66.060748 71.017235,34.77434 104.74258,52.161509 73.692191,41.461723 Z m 0,0"
       id="path30-5" />
    <path
       fill="#021858"
       d="M 66.165585,53.420319 63.726675,28.873721 39.940596,42.405812 66.165585,21.714293 92.390562,42.405812 68.578302,28.873721 Z m 0,0"
       id="path32-0" />
    <path
       fill="#021858"
       d="M 81.533469,52.187737 70.151784,78.832326 77.363656,46.628045 Z m 0,0"
       id="path34-3" />
    <path
       fill="#021858"
       d="M 54.967568,46.628045 62.179384,78.832326 50.771576,52.187737 Z m 0,0"
       id="path36-1" />
    <path
       fill="#021858"
       d="m 117.22564,92.888919 6.16289,-20.376822 -9.83436,-13.427187 15.36784,12.142161 -6.53006,21.635619 6.16288,19.14423 -13.00759,10.22775 7.47412,-11.30297 z m 0,0"
       id="path38-9" />
    <path
       fill="#021858"
       d="m 87.853661,94.934457 23.707389,7.972403 -3.0945,-10.122844 6.52998,-20.403051 -1.73084,-6.949622 5.42856,8.051085 -6.13663,19.039336 5.5859,17.832996 -7.39543,12.85024 2.3078,-14.00416 z m 0,0"
       id="path40-7" />
    <path
       fill="#021858"
       d="m 91.105573,92.285743 8.732922,-0.472031 10.306445,-15.997254 -6.24156,17.492073 1.07517,3.487926 z m 0,0"
       id="path42-3" />
    <path
       fill="#021858"
       d="m 100.10073,78.386499 -16.941358,2.17667 -4.274617,15.210486 1.442362,-19.799861 30.893003,-9.257425 -9.70323,6.005534 z m 0,0"
       id="path44-1" />
    <path
       fill="#021858"
       d="M 3.4092389,71.227071 18.777062,59.08491 8.9427153,72.512097 15.105596,92.888919 9.3098071,110.9317 16.783993,122.23467 3.7764054,112.00692 9.9392121,92.836461 Z m 0,0"
       id="path46-3" />
    <path
       fill="#021858"
       d="m 14.161458,110.35476 5.612163,-17.832996 -6.136627,-19.039336 5.428548,-8.051085 -1.730829,6.949622 6.529985,20.403051 -3.094506,10.122844 23.707409,-7.972403 -25.202266,14.266383 2.307803,14.00416 z m 0,0"
       id="path48-9" />
    <path
       fill="#021858"
       d="M 32.492744,91.813699 41.225647,92.28573 27.352599,96.79642 28.427846,93.308506 22.1863,75.816433 Z m 0,0"
       id="path50-8" />
    <path
       fill="#021858"
       d="m 51.977866,75.973794 1.442436,19.773645 -4.248512,-15.18427 -16.941286,-2.17667 -1.442411,-5.664596 -9.703228,-6.005534 z m 0,0"
       id="path52-4" />
    <path
       fill="#021858"
       d="m 76.970311,146.57145 9.309869,-7.15941 -1.599711,7.00206 -18.514884,14.55488 -18.514818,-14.55488 -1.599722,-7.00206 9.309875,7.15941 z m 0,0"
       id="path54-2" />
    <path
       fill="#021858"
       d="m 79.802565,107.12908 -13.033768,11.09315 22.710825,11.11942 10.830908,-7.50035 1.4686,-10.69979 -11.276771,-11.09318 17.098731,11.2243 -2.15044,14.42373 -13.741913,10.51623 -2.596282,5.90062 -2.543783,-6.94963 -20.403075,-8.33955 -20.40302,8.33955 -2.543787,6.94963 -2.596282,-5.90062 -13.741929,-10.51623 -2.15043,-14.42373 17.09865,-11.2243 -11.302945,11.09318 1.468604,10.69979 10.830912,7.50035 22.710821,-11.11942 -13.033773,-11.09315 -3.855092,-6.3989 6.661174,3.9862 h 21.714255 l 6.661168,-3.9862 z m 0,0"
       id="path56-0" />
    <path
       fill="#021858"
       d="m 26.328965,235.55888 h 7.260942 v -34.62565 h -7.260942 z m 0,0"
       id="path58-4" />
    <path
       fill="#021858"
       d="m 52.704347,201.18738 0.172395,-0.25415 h -7.152048 l -11.544892,17.18123 -0.05442,0.0907 11.018452,17.28106 0.04535,0.0725 h 8.068702 l -11.771799,-18.1887 z m 0,0"
       id="path60-5" />
    <path
       fill="#021858"
       d="M 76.765289,214.94688 H 64.79382 v -7.78738 h 13.895615 l 2.141994,-6.22627 H 57.532893 v 34.62565 h 7.260927 v -14.72157 h 9.947499 z m 0,0"
       id="path62-2" />
    <path
       fill="#021858"
       d="m 95.326079,201.04216 -0.03628,-0.10885 H 88.25574 l -11.844411,34.41689 -0.07243,0.20874 h 6.489455 l 2.432424,-7.25187 h 8.631438 l 0.898552,-5.26417 h -7.787363 l 2.22367,-6.59841 c 0.880399,-2.61392 1.561106,-5.06448 2.060287,-7.00679 0.49918,1.93321 1.170842,4.38379 2.060298,7.00679 l 6.3624,19.00553 0.03628,0.10885 h 7.506 z m 0,0"
       id="path64-3" />
  </g>
</svg>